<svg width="512" height="408" viewBox="0 0 512 408" fill="none" xmlns="http://www.w3.org/2000/svg">
<path d="M435.143 77.356C428.347 70.561 417.68 69.559 409.736 74.972C379.81 95.37 229.706 197.941 213.574 214.072C190.18 237.467 190.18 275.531 213.574 298.926C225.271 310.622 240.637 316.471 256.001 316.471C271.365 316.471 286.73 310.622 298.428 298.926C314.559 282.794 417.129 132.69 437.528 102.764C442.939 94.821 441.938 84.153 435.143 77.356ZM270.142 270.641C262.345 278.44 249.656 278.44 241.859 270.641C234.061 262.844 234.06 250.159 241.855 242.361C248.123 236.167 290.74 205.773 343.174 169.326C306.728 221.76 276.334 264.375 270.142 270.641Z" fill="white"/>
<path d="M92.231 349.523L67.541 361.567C49.475 329.325 40 293.338 40 256.499C40 229.508 44.977 203.657 54.06 179.816L82.351 193.386C85.141 194.724 88.086 195.358 90.987 195.358C98.44 195.358 105.595 191.173 109.034 184.003C113.81 174.044 109.61 162.097 99.65 157.32L71.718 143.922C106.435 87.302 166.502 47.827 236.001 41.417V71.498C236.001 82.544 244.955 91.498 256.001 91.498C267.047 91.498 276.001 82.544 276.001 71.498V41.402C299.829 43.571 322.885 49.639 344.772 59.519C354.837 64.064 366.684 59.585 371.229 49.52C375.774 39.452 371.297 27.607 361.229 23.062C328.063 8.09099 292.659 0.498993 256 0.498993C187.62 0.498993 123.333 27.127 74.98 75.479C26.629 123.832 0 188.119 0 256.499C0 307.029 14.998 356.173 43.373 398.614C47.195 404.329 53.514 407.5 60.012 407.5C62.966 407.5 65.958 406.845 68.769 405.474L109.769 385.474C119.697 380.631 123.819 368.658 118.976 358.73C114.133 348.803 102.159 344.682 92.231 349.523Z" fill="white"/>
<path d="M489.436 151.271C484.892 141.204 473.049 136.724 462.978 141.271C452.911 145.816 448.434 157.661 452.979 167.728C465.601 195.686 472 225.553 472 256.499C472 293.393 462.494 329.438 444.375 361.717L418.598 349.442C408.627 344.694 396.692 348.927 391.942 358.901C387.193 368.873 391.428 380.808 401.401 385.557L443.401 405.557C446.164 406.872 449.093 407.501 451.989 407.501C458.489 407.501 464.809 404.326 468.626 398.615C497.002 356.173 512 307.029 512 256.499C512 219.84 504.408 184.436 489.436 151.271Z" fill="white"/>
</svg>
