<svg width="512" height="512" viewBox="0 0 512 512" fill="none" xmlns="http://www.w3.org/2000/svg">
<path d="M435.143 129.356C428.347 122.561 417.68 121.559 409.736 126.972C379.81 147.37 229.706 249.941 213.574 266.072C190.18 289.467 190.18 327.531 213.574 350.926C225.271 362.622 240.637 368.471 256.001 368.471C271.365 368.471 286.73 362.622 298.428 350.926C314.559 334.794 417.129 184.69 437.528 154.764C442.939 146.821 441.938 136.153 435.143 129.356ZM270.142 322.641C262.345 330.44 249.656 330.44 241.859 322.641C234.061 314.844 234.06 302.159 241.855 294.361C248.123 288.167 290.74 257.773 343.174 221.326C306.728 273.76 276.334 316.375 270.142 322.641Z" fill="#1275B9"/>
<path d="M92.231 401.523L67.541 413.567C49.475 381.325 40 345.338 40 308.499C40 281.508 44.977 255.657 54.06 231.816L82.351 245.386C85.141 246.724 88.086 247.358 90.987 247.358C98.44 247.358 105.595 243.173 109.034 236.003C113.81 226.044 109.61 214.097 99.65 209.32L71.718 195.922C106.435 139.302 166.502 99.827 236.001 93.417V123.498C236.001 134.544 244.955 143.498 256.001 143.498C267.047 143.498 276.001 134.544 276.001 123.498V93.402C299.829 95.571 322.885 101.639 344.772 111.519C354.837 116.064 366.684 111.585 371.229 101.52C375.774 91.452 371.297 79.607 361.229 75.062C328.063 60.091 292.659 52.499 256 52.499C187.62 52.499 123.333 79.127 74.98 127.479C26.629 175.832 0 240.119 0 308.499C0 359.029 14.998 408.173 43.373 450.614C47.195 456.329 53.514 459.5 60.012 459.5C62.966 459.5 65.958 458.845 68.769 457.474L109.769 437.474C119.697 432.631 123.819 420.658 118.976 410.73C114.133 400.803 102.159 396.682 92.231 401.523Z" fill="#1275B9"/>
<path d="M489.436 203.271C484.892 193.204 473.049 188.724 462.978 193.271C452.911 197.816 448.434 209.661 452.979 219.728C465.601 247.686 472 277.553 472 308.499C472 345.393 462.494 381.438 444.375 413.717L418.598 401.442C408.627 396.694 396.692 400.927 391.942 410.901C387.193 420.873 391.428 432.808 401.401 437.557L443.401 457.557C446.164 458.872 449.093 459.501 451.989 459.501C458.489 459.501 464.809 456.326 468.626 450.615C497.002 408.173 512 359.029 512 308.499C512 271.84 504.408 236.436 489.436 203.271Z" fill="#1275B9"/>
</svg>
