<svg width="34" height="34" viewBox="0 0 34 34" fill="none" xmlns="http://www.w3.org/2000/svg">
<g clip-path="url(#clip0)">
<path d="M27.125 0H6.86701C5.59001 0 4.56201 1.033 4.56201 2.309V31.686C4.56201 32.958 5.59001 33.994 6.86701 33.994H27.125C28.398 33.994 29.431 32.959 29.431 31.686V2.309C29.433 1.033 28.399 0 27.125 0ZM16.997 33.129C16.239 33.129 15.626 32.516 15.626 31.759C15.626 31.001 16.239 30.387 16.997 30.387C17.753 30.387 18.368 31.001 18.368 31.759C18.368 32.516 17.753 33.129 16.997 33.129ZM27.098 29.186H6.89601V2.774H27.098V29.186Z" fill="white"/>
</g>
<defs>
<clipPath id="clip0">
<rect width="33.994" height="33.994" fill="white"/>
</clipPath>
</defs>
</svg>
