<?xml version="1.0" encoding="utf-8"?>
<!-- Generator: Adobe Illustrator 23.0.0, SVG Export Plug-In . SVG Version: 6.00 Build 0)  -->
<svg version="1.1" id="Capa_1" xmlns="http://www.w3.org/2000/svg" xmlns:xlink="http://www.w3.org/1999/xlink" x="0px" y="0px"
	 viewBox="0 0 20 20" style="enable-background:new 0 0 20 20;" xml:space="preserve">
<style type="text/css">
	.st0{fill:#7E5AFF;}
</style>
<g>
	<g>
		<g>
			<path class="st0" d="M17.7,2.7H2.3C1.1,2.7,0,3.7,0,5v10c0,1.3,1.1,2.3,2.3,2.3h15.3c1.3,0,2.3-1.1,2.3-2.3V5
				C20,3.7,18.9,2.7,17.7,2.7z M18.4,15c0,0.4-0.4,0.8-0.8,0.8H2.3c-0.4,0-0.8-0.4-0.8-0.8V5c0-0.4,0.4-0.8,0.8-0.8h15.3
				c0.4,0,0.8,0.4,0.8,0.8V15z"/>
		</g>
	</g>
	<g>
		<g>
			<polygon class="st0" points="18.3,3.6 10,9.8 1.7,3.6 0.8,4.9 10,11.8 19.2,4.9 			"/>
		</g>
	</g>
</g>
</svg>
