<?xml version="1.0" encoding="utf-8"?>
<!-- Generator: Adobe Illustrator 23.0.0, SVG Export Plug-In . SVG Version: 6.00 Build 0)  -->
<svg version="1.1" id="Layer_1" xmlns="http://www.w3.org/2000/svg" xmlns:xlink="http://www.w3.org/1999/xlink" x="0px" y="0px"
	 viewBox="0 0 20 20" style="enable-background:new 0 0 20 20;" xml:space="preserve">
<style type="text/css">
	.st0{fill:#7E5AFF;}
</style>
<g>
	<path class="st0" d="M15.9,3.4c-1.2-2.1-3.4-3.4-5.8-3.4c-0.1,0-0.2,0-0.3,0c-2.4,0-4.6,1.3-5.8,3.4C2.8,5.6,2.8,8.1,4,10.3l5,9.1
		c0,0,0,0,0,0c0.2,0.4,0.6,0.6,1,0.6c0.4,0,0.8-0.2,1-0.6c0,0,0,0,0,0l5-9.1C17.2,8.1,17.2,5.6,15.9,3.4L15.9,3.4z M10,9.1
		c-1.6,0-2.8-1.3-2.8-2.8S8.4,3.4,10,3.4s2.8,1.3,2.8,2.8S11.6,9.1,10,9.1z"/>
</g>
</svg>
