<?xml version="1.0" encoding="utf-8"?>
<!-- Generator: Adobe Illustrator 23.0.0, SVG Export Plug-In . SVG Version: 6.00 Build 0)  -->
<svg version="1.1" id="Capa_1" xmlns="http://www.w3.org/2000/svg" xmlns:xlink="http://www.w3.org/1999/xlink" x="0px" y="0px"
	 viewBox="0 0 20 20" style="enable-background:new 0 0 20 20;" xml:space="preserve">
<style type="text/css">
	.st0{fill:#7E5AFF;}
</style>
<g>
	<g>
		<path class="st0" d="M19.5,14.7l-2.8-2.8c-1-1-2.7-0.6-3.1,0.7c-0.3,0.9-1.3,1.4-2.2,1.2c-2-0.5-4.7-3.1-5.2-5.2
			C5.9,7.7,6.5,6.7,7.4,6.4C8.7,6,9.1,4.3,8.1,3.3L5.3,0.5c-0.8-0.7-2-0.7-2.7,0L0.7,2.4c-1.9,2,0.2,7.3,4.9,12s10,6.9,12,4.9
			l1.9-1.9C20.2,16.6,20.2,15.4,19.5,14.7z"/>
	</g>
</g>
</svg>
