<?xml version="1.0" encoding="utf-8"?>
<!-- Generator: Adobe Illustrator 23.0.0, SVG Export Plug-In . SVG Version: 6.00 Build 0)  -->
<svg version="1.1" id="Capa_1" xmlns="http://www.w3.org/2000/svg" xmlns:xlink="http://www.w3.org/1999/xlink" x="0px" y="0px"
	 viewBox="0 0 20 20" style="enable-background:new 0 0 20 20;" xml:space="preserve">
<style type="text/css">
	.st0{fill:#7E5AFF;}
</style>
<g>
	<path class="st0" d="M10,0C4.5,0,0,4.5,0,10s4.5,10,10,10s10-4.5,10-10S15.5,0,10,0z M10,17.9c-4.4,0-7.9-3.5-7.9-7.9
		S5.6,2.1,10,2.1s7.9,3.5,7.9,7.9S14.4,17.9,10,17.9z"/>
	<path class="st0" d="M14.2,10.1h-4.1V6.6C10.1,6,9.6,5.5,9,5.5S8,6,8,6.6v4.6c0,0.6,0.5,1.1,1.1,1.1h5.2c0.6,0,1.1-0.5,1.1-1.1
		C15.2,10.6,14.8,10.1,14.2,10.1z"/>
</g>
</svg>
