<svg width="200" height="200" viewBox="0 0 200 200" fill="none" xmlns="http://www.w3.org/2000/svg">
<path d="M100 0C44.9375 0 0 44.9414 0 100C0 155.063 44.9414 200 100 200C155.063 200 200 155.059 200 100C200 44.9375 155.059 0 100 0ZM167.828 43.5586C180.313 58.5352 187.934 77.6953 188.262 98.5937C172.613 94.9336 155.234 94.6875 137.535 97.9141C132.93 98.7539 128.324 99.8203 123.746 101.102C122.223 96.957 120.605 92.8477 118.887 88.7773C117.133 84.625 115.281 80.543 113.344 76.5195C134.434 68.4648 157.285 56.4727 167.828 43.5586ZM100 11.7188C122.977 11.7188 143.926 20.543 159.648 34.9766C153.516 43.3398 136.039 55.5156 108 66.0156C98.2109 47.7891 86.4727 31.0391 72.9102 15.9766C81.4492 13.2148 90.5547 11.7188 100 11.7188ZM61.3086 20.6641C75.1406 35.4805 87.0391 52.0273 96.8398 69.9023C67.668 79.3437 38.1328 83.1953 13.8477 80.707C19.7617 54.2812 37.5547 32.293 61.3086 20.6641ZM11.7188 100C11.7188 97.4063 11.8398 94.8398 12.0586 92.3047C17.418 92.8711 23.0078 93.1562 28.7852 93.1562C51.5703 93.1562 77.168 88.7734 102.305 80.4492C106.141 88.3008 109.59 96.3789 112.633 104.656C102.832 108.18 93.293 112.66 84.3359 117.992C62.375 131.066 46.3086 147.887 39.6445 164.363C22.4687 148.246 11.7188 125.355 11.7188 100ZM100 188.281C81.1367 188.281 63.6367 182.332 49.2734 172.211C53.7266 157.164 68.7891 140.887 90.332 128.062C97.9219 123.539 106.797 119.277 116.457 115.813C123.305 137.336 127.5 160.055 128.832 183.441C119.793 186.574 110.094 188.281 100 188.281ZM140.262 178.555C138.637 155.773 134.395 133.594 127.586 112.289C146.57 107.07 167.656 105.32 187.652 110.508C184.113 140.199 165.785 165.418 140.262 178.555Z" fill="white"/>
</svg>
