<svg width="53" height="97" viewBox="0 0 53 97" fill="none" xmlns="http://www.w3.org/2000/svg">
<path d="M50.089 0.02L37.624 0C23.62 0 14.57 9.285 14.57 23.656V34.563H2.037C0.953997 34.563 0.0769958 35.441 0.0769958 36.524V52.327C0.0769958 53.41 0.954997 54.287 2.037 54.287H14.57V94.163C14.57 95.246 15.447 96.123 16.53 96.123H32.882C33.965 96.123 34.842 95.245 34.842 94.163V54.287H49.496C50.579 54.287 51.456 53.41 51.456 52.327L51.462 36.524C51.462 36.004 51.255 35.506 50.888 35.138C50.521 34.77 50.021 34.563 49.501 34.563H34.842V25.317C34.842 20.873 35.901 18.617 41.69 18.617L50.087 18.614C51.169 18.614 52.046 17.736 52.046 16.654V1.98C52.046 0.899 51.17 0.022 50.089 0.02Z" fill="white"/>
</svg>
