<svg width="192" height="200" viewBox="0 0 192 200" fill="none" xmlns="http://www.w3.org/2000/svg">
<path d="M101.793 104.667C97.8594 101.8 91.9176 97.475 91.8426 95.8168C91.8426 93.4586 97.2258 88.1168 101.551 83.8336C111.518 73.9418 125.176 60.4004 125.176 41.6668C125.4 27.7059 117.737 14.8109 105.368 8.33359H125.176C127.477 8.33359 129.343 6.46797 129.343 4.1668C129.343 1.86563 127.477 0 125.176 0H71.009C67.4004 0.0121094 63.7996 0.346484 60.2508 1C76.8426 -2.3082 94.2676 12.5 99.3426 34.6082C104.534 57 95.0926 78.3332 78.3008 82.25C76.5488 82.6535 74.757 82.8578 72.959 82.8582C57.8672 82.8582 43.1008 68.6914 38.4672 48.6914C33.359 26.525 42.634 5.425 59.0676 1.2418C34.8746 4.82187 16.9293 25.5437 16.8426 50C16.8426 78.675 43.6676 88.9918 62.9758 91.1918C58.6906 99.2801 58.8414 108.999 63.3758 116.95C38.0008 118.742 0.17578 129.717 0.17578 162.5C-0.122658 171.328 3.25039 179.884 9.49258 186.133C22.4676 198.925 45.2426 200 57.134 200C58.559 200 59.8172 200 60.884 200H62.6758C63.384 200 133.509 198.758 133.509 154.167C133.509 127.775 114.426 113.875 101.793 104.667ZM71.009 191.667C49.8672 191.667 25.1758 182.942 25.1758 158.334C25.1758 133.725 53.7258 116.667 79.3426 116.667C80.0902 116.667 80.8246 116.868 81.4676 117.25C85.0926 119.4 116.843 138.817 116.843 158.333C116.843 178.25 93.1426 191.667 71.009 191.667Z" fill="white"/>
<path d="M162.676 116.667C160.375 116.667 158.509 114.801 158.509 112.5V62.5C158.509 60.1988 160.375 58.3332 162.676 58.3332C164.977 58.3332 166.843 60.1988 166.843 62.5V112.5C166.843 114.801 164.977 116.667 162.676 116.667Z" fill="white"/>
<path d="M187.676 91.6668H137.676C135.375 91.6668 133.509 89.8012 133.509 87.5C133.509 85.1988 135.375 83.3332 137.676 83.3332H187.676C189.977 83.3332 191.843 85.1988 191.843 87.5C191.843 89.8012 189.977 91.6668 187.676 91.6668Z" fill="white"/>
</svg>
