<svg width="200" height="200" viewBox="0 0 200 200" fill="none" xmlns="http://www.w3.org/2000/svg">
<g clip-path="url(#clip0)">
<path d="M62.5078 181.291C137.984 181.291 179.258 118.762 179.258 64.5416C179.258 62.7654 179.221 60.9969 179.142 59.2376C187.152 53.4453 194.117 46.2172 199.61 37.9897C192.258 41.2581 184.345 43.4569 176.046 44.4503C184.517 39.3691 191.022 31.3338 194.089 21.7543C186.161 26.454 177.381 29.8689 168.033 31.7137C160.546 23.7379 149.884 18.7498 138.08 18.7498C115.421 18.7498 97.0446 37.126 97.0446 59.7778C97.0446 62.9989 97.4047 66.13 98.1081 69.1345C64.0046 67.4178 33.7632 51.0909 13.5269 26.2618C10.0037 32.3256 7.97121 39.3706 7.97121 46.8871C7.97121 61.1221 15.2161 73.6907 26.2314 81.0424C19.4992 80.8349 13.176 78.9871 7.64772 75.9109C7.64162 76.0833 7.64162 76.2512 7.64162 76.4343C7.64162 96.3074 21.785 112.9 40.5625 116.66C37.114 117.598 33.4855 118.103 29.7425 118.103C27.1027 118.103 24.5301 117.844 22.0292 117.363C27.2538 133.667 42.4027 145.531 60.3624 145.863C46.3181 156.871 28.6255 163.428 9.39791 163.428C6.0898 163.428 2.82136 163.239 -0.390625 162.86C17.7689 174.5 39.3342 181.293 62.5093 181.293" fill="white"/>
</g>
<defs>
<clipPath id="clip0">
<rect width="200" height="200" fill="white"/>
</clipPath>
</defs>
</svg>
